<svg xmlns="http://www.w3.org/2000/svg" xmlns:xlink="http://www.w3.org/1999/xlink" width="1920" zoomAndPan="magnify" viewBox="0 0 1440 809.999993" height="1080" preserveAspectRatio="xMidYMid meet" version="1.0"><defs><clipPath id="27ed9fa281"><path d="M 225 370 L 481 370 L 481 453 L 225 453 Z M 225 370 " clip-rule="nonzero"/></clipPath><clipPath id="10c32aeb51"><path d="M 261.292969 327.175781 L 493.886719 400.066406 L 455.984375 521.015625 L 223.390625 448.125 Z M 261.292969 327.175781 " clip-rule="nonzero"/></clipPath><clipPath id="2a6326e96c"><path d="M 261.292969 327.175781 L 493.886719 400.066406 L 455.984375 521.015625 L 223.390625 448.125 Z M 261.292969 327.175781 " clip-rule="nonzero"/></clipPath><clipPath id="bebc981f13"><path d="M 644.726562 254.792969 L 795.476562 254.792969 L 795.476562 424 L 644.726562 424 Z M 644.726562 254.792969 " clip-rule="nonzero"/></clipPath><clipPath id="4e35fd7676"><path d="M 1030 351 L 1118 351 L 1118 476 L 1030 476 Z M 1030 351 " clip-rule="nonzero"/></clipPath><clipPath id="ec9159d3e1"><path d="M 1154.199219 444.34375 L 1049.074219 497.394531 L 1001.769531 403.65625 L 1106.890625 350.601562 Z M 1154.199219 444.34375 " clip-rule="nonzero"/></clipPath><clipPath id="0604ae5914"><path d="M 1154.199219 444.34375 L 1049.074219 497.394531 L 1001.769531 403.65625 L 1106.890625 350.601562 Z M 1154.199219 444.34375 " clip-rule="nonzero"/></clipPath><clipPath id="95ee93ff15"><path d="M 742 620 L 874 620 L 874 684 L 742 684 Z M 742 620 " clip-rule="nonzero"/></clipPath><clipPath id="bd82b82db0"><path d="M 805.773438 728.996094 L 716.59375 652.105469 L 785.15625 572.582031 L 874.335938 649.472656 Z M 805.773438 728.996094 " clip-rule="nonzero"/></clipPath><clipPath id="16bb1c8f27"><path d="M 805.773438 728.996094 L 716.59375 652.105469 L 785.15625 572.582031 L 874.335938 649.472656 Z M 805.773438 728.996094 " clip-rule="nonzero"/></clipPath></defs><rect x="-144" width="1728" fill="#ffffff" y="-80.999999" height="971.999992" fill-opacity="1"/><rect x="-144" width="1728" fill="#ffffff" y="-80.999999" height="971.999992" fill-opacity="1"/><g clip-path="url(#27ed9fa281)"><g clip-path="url(#10c32aeb51)"><g clip-path="url(#2a6326e96c)"><path fill="#224349" d="M 227.894531 448.96875 L 226.828125 447.847656 C 226.371094 447.269531 226.089844 446.613281 225.988281 445.878906 C 225.882812 445.144531 225.976562 444.4375 226.261719 443.75 C 228.542969 436.464844 255.382812 398.125 301.582031 385.984375 C 309.09375 384.277344 316.695312 383.1875 324.386719 382.710938 C 332.078125 382.234375 339.753906 382.378906 347.421875 383.144531 C 355.085938 383.914062 362.640625 385.292969 370.085938 387.28125 C 377.527344 389.273438 384.761719 391.847656 391.789062 395.011719 L 399.609375 370.054688 L 480.199219 440.632812 L 373.710938 452.578125 L 382.964844 423.050781 C 376.46875 419.613281 369.730469 416.742188 362.753906 414.4375 C 355.773438 412.128906 348.652344 410.421875 341.386719 409.3125 C 334.121094 408.199219 326.816406 407.703125 319.464844 407.820312 C 312.117188 407.933594 304.828125 408.664062 297.601562 410.003906 C 291.910156 411.472656 286.339844 413.308594 280.882812 415.503906 C 275.429688 417.695312 270.140625 420.234375 265.015625 423.117188 C 259.890625 425.996094 254.972656 429.195312 250.265625 432.714844 C 245.554688 436.234375 241.089844 440.042969 236.875 444.140625 C 232.554688 448.023438 231.261719 449.199219 229.277344 449.078125 Z M 374.0625 395.375 C 368.371094 393.503906 362.574219 392.03125 356.679688 390.957031 C 350.785156 389.886719 344.84375 389.222656 338.855469 388.96875 C 332.867188 388.71875 326.894531 388.878906 320.929688 389.449219 C 314.960938 390.019531 309.066406 391 303.234375 392.386719 C 297.59375 393.96875 292.09375 395.9375 286.730469 398.300781 C 281.367188 400.664062 276.199219 403.394531 271.226562 406.488281 C 266.253906 409.585938 261.523438 413.015625 257.035156 416.785156 C 252.550781 420.554688 248.351562 424.621094 244.441406 428.984375 C 252.007812 422.867188 260.15625 417.660156 268.882812 413.363281 C 277.613281 409.0625 286.707031 405.777344 296.167969 403.503906 C 324.515625 397.210938 355.558594 402.207031 388.453125 418.3125 L 391.011719 419.570312 L 383.082031 444.878906 L 464.492188 435.730469 L 402.863281 381.730469 L 395.753906 404.414062 L 389.984375 401.503906 C 384.824219 399.082031 379.515625 397.039062 374.0625 395.375 Z M 374.0625 395.375 " fill-opacity="1" fill-rule="nonzero"/></g></g></g><g clip-path="url(#bebc981f13)"><path fill="#224349" d="M 644.515625 258.003906 C 644.515625 257.753906 644.546875 257.503906 644.609375 257.257812 C 644.691406 256.933594 644.824219 256.632812 645.007812 256.351562 C 645.191406 256.074219 645.417969 255.832031 645.679688 255.625 C 645.945312 255.417969 646.234375 255.261719 646.550781 255.15625 C 646.867188 255.046875 647.195312 254.992188 647.527344 254.992188 C 739.167969 254.992188 761.140625 335.894531 764.503906 351.414062 L 792.160156 351.414062 C 792.742188 351.414062 793.28125 351.570312 793.773438 351.882812 C 794.265625 352.191406 794.632812 352.609375 794.882812 353.136719 C 795.132812 353.664062 795.222656 354.214844 795.152344 354.792969 C 795.082031 355.371094 794.863281 355.882812 794.496094 356.335938 L 740.257812 422.625 C 740.117188 422.796875 739.957031 422.953125 739.78125 423.089844 C 739.605469 423.226562 739.417969 423.34375 739.214844 423.441406 C 739.011719 423.535156 738.804688 423.609375 738.585938 423.65625 C 738.367188 423.707031 738.148438 423.730469 737.925781 423.730469 C 737.703125 423.730469 737.480469 423.707031 737.261719 423.65625 C 737.046875 423.609375 736.835938 423.535156 736.632812 423.441406 C 736.433594 423.34375 736.242188 423.226562 736.066406 423.089844 C 735.890625 422.953125 735.734375 422.796875 735.589844 422.625 L 681.355469 356.335938 C 680.984375 355.882812 680.765625 355.371094 680.695312 354.792969 C 680.625 354.214844 680.714844 353.664062 680.964844 353.136719 C 681.214844 352.609375 681.585938 352.191406 682.078125 351.882812 C 682.566406 351.570312 683.105469 351.414062 683.6875 351.414062 L 710.746094 351.414062 C 708.582031 295.449219 646.71875 260.996094 646.082031 260.648438 C 645.597656 260.386719 645.21875 260.015625 644.9375 259.542969 C 644.65625 259.066406 644.515625 258.554688 644.515625 258.003906 Z M 785.804688 357.441406 L 762.03125 357.441406 C 761.671875 357.441406 761.324219 357.378906 760.988281 357.253906 C 760.648438 357.128906 760.34375 356.949219 760.070312 356.714844 C 759.800781 356.484375 759.574219 356.210938 759.398438 355.898438 C 759.222656 355.582031 759.109375 355.25 759.050781 354.894531 C 758.472656 351.214844 744.371094 268.144531 658.714844 261.445312 C 677.546875 274.277344 716.832031 306.765625 716.832031 354.425781 C 716.832031 354.828125 716.753906 355.210938 716.601562 355.578125 C 716.449219 355.949219 716.230469 356.273438 715.949219 356.558594 C 715.667969 356.839844 715.339844 357.058594 714.972656 357.210938 C 714.601562 357.363281 714.21875 357.441406 713.820312 357.441406 L 690.042969 357.441406 L 737.925781 415.960938 Z M 785.804688 357.441406 " fill-opacity="1" fill-rule="nonzero"/></g><g clip-path="url(#4e35fd7676)"><g clip-path="url(#ec9159d3e1)"><g clip-path="url(#0604ae5914)"><path fill="#224349" d="M 1104.78125 351.40625 C 1104.9375 351.324219 1105.105469 351.265625 1105.277344 351.230469 C 1105.746094 351.125 1106.195312 351.175781 1106.628906 351.382812 C 1107.0625 351.589844 1107.386719 351.90625 1107.605469 352.335938 C 1136.386719 409.367188 1092.9375 448.449219 1084.335938 455.414062 L 1093.019531 472.628906 C 1093.203125 472.992188 1093.277344 473.375 1093.234375 473.777344 C 1093.195312 474.179688 1093.050781 474.542969 1092.804688 474.863281 C 1092.554688 475.183594 1092.238281 475.414062 1091.859375 475.550781 C 1091.476562 475.6875 1091.085938 475.714844 1090.691406 475.625 L 1032.402344 462.691406 C 1032.09375 462.625 1031.816406 462.492188 1031.566406 462.296875 C 1031.320312 462.105469 1031.125 461.867188 1030.980469 461.585938 C 1030.839844 461.304688 1030.765625 461.007812 1030.757812 460.691406 C 1030.75 460.375 1030.808594 460.074219 1030.9375 459.789062 L 1055.15625 405.214844 C 1055.320312 404.84375 1055.574219 404.546875 1055.910156 404.320312 C 1056.25 404.09375 1056.621094 403.976562 1057.023438 403.96875 C 1057.429688 403.957031 1057.808594 404.054688 1058.15625 404.265625 C 1058.503906 404.472656 1058.769531 404.757812 1058.953125 405.121094 L 1067.449219 421.960938 C 1101.597656 403.035156 1103.613281 353.714844 1103.628906 353.210938 C 1103.640625 352.828125 1103.75 352.472656 1103.957031 352.148438 C 1104.164062 351.828125 1104.4375 351.578125 1104.78125 351.40625 Z M 1087.273438 470.5625 L 1079.808594 455.769531 C 1079.695312 455.546875 1079.625 455.308594 1079.597656 455.058594 C 1079.566406 454.8125 1079.582031 454.566406 1079.644531 454.324219 C 1079.703125 454.078125 1079.800781 453.855469 1079.941406 453.648438 C 1080.082031 453.4375 1080.253906 453.261719 1080.457031 453.117188 C 1082.5625 451.597656 1129.835938 416.734375 1107.101562 361.324219 C 1105.027344 377.074219 1097.148438 411.722656 1067.488281 426.695312 C 1067.238281 426.820312 1066.976562 426.890625 1066.699219 426.914062 C 1066.421875 426.933594 1066.148438 426.902344 1065.882812 426.8125 C 1065.621094 426.726562 1065.382812 426.59375 1065.171875 426.410156 C 1064.960938 426.230469 1064.792969 426.011719 1064.664062 425.765625 L 1057.199219 410.96875 L 1035.816406 459.144531 Z M 1087.273438 470.5625 " fill-opacity="1" fill-rule="nonzero"/></g></g></g><g clip-path="url(#95ee93ff15)"><g clip-path="url(#bd82b82db0)"><g clip-path="url(#16bb1c8f27)"><path fill="#224349" d="M 872.792969 647.828125 C 872.925781 647.945312 873.042969 648.074219 873.140625 648.21875 C 873.417969 648.613281 873.542969 649.046875 873.515625 649.527344 C 873.492188 650.007812 873.324219 650.429688 873.011719 650.792969 C 831.296875 699.171875 778.578125 673.945312 768.855469 668.65625 L 756.265625 683.257812 C 756 683.566406 755.675781 683.777344 755.285156 683.898438 C 754.898438 684.015625 754.507812 684.019531 754.117188 683.914062 C 753.726562 683.804688 753.394531 683.601562 753.121094 683.300781 C 752.847656 683 752.675781 682.652344 752.605469 682.25 L 742.296875 623.441406 C 742.242188 623.128906 742.257812 622.824219 742.339844 622.519531 C 742.425781 622.214844 742.570312 621.945312 742.777344 621.707031 C 742.980469 621.46875 743.226562 621.285156 743.515625 621.15625 C 743.804688 621.027344 744.105469 620.96875 744.421875 620.976562 L 804.109375 622.519531 C 804.515625 622.527344 804.886719 622.648438 805.222656 622.871094 C 805.558594 623.097656 805.808594 623.398438 805.972656 623.769531 C 806.136719 624.140625 806.191406 624.527344 806.128906 624.925781 C 806.070312 625.328125 805.910156 625.683594 805.644531 625.988281 L 793.328125 640.277344 C 823.859375 664.605469 870.207031 647.628906 870.679688 647.453125 C 871.039062 647.316406 871.410156 647.285156 871.789062 647.351562 C 872.164062 647.417969 872.5 647.578125 872.792969 647.828125 Z M 755.980469 677.160156 L 766.800781 664.609375 C 766.964844 664.417969 767.15625 664.261719 767.375 664.140625 C 767.59375 664.019531 767.828125 663.941406 768.074219 663.902344 C 768.320312 663.867188 768.566406 663.871094 768.8125 663.921875 C 769.058594 663.972656 769.289062 664.0625 769.5 664.195312 C 771.707031 665.5625 821.984375 695.933594 864.511719 653.757812 C 849.164062 657.859375 814.128906 663.8125 788.964844 642.117188 C 788.753906 641.933594 788.585938 641.71875 788.460938 641.472656 C 788.335938 641.222656 788.261719 640.960938 788.242188 640.679688 C 788.222656 640.402344 788.253906 640.132812 788.34375 639.867188 C 788.429688 639.605469 788.566406 639.367188 788.746094 639.15625 L 799.570312 626.601562 L 746.878906 625.242188 Z M 755.980469 677.160156 " fill-opacity="1" fill-rule="nonzero"/></g></g></g></svg>