<svg xmlns="http://www.w3.org/2000/svg" xmlns:xlink="http://www.w3.org/1999/xlink" width="1920" zoomAndPan="magnify" viewBox="0 0 1440 809.999993" height="1080" preserveAspectRatio="xMidYMid meet" version="1.0"><defs><clipPath id="91bcba50f3"><path d="M 254 356 L 472 356 L 472 513 L 254 513 Z M 254 356 " clip-rule="nonzero"/></clipPath><clipPath id="55595e153c"><path d="M 225.414062 390.957031 L 462.410156 333.976562 L 492.039062 457.214844 L 255.042969 514.195312 Z M 225.414062 390.957031 " clip-rule="nonzero"/></clipPath><clipPath id="b9f24b70d9"><path d="M 225.414062 390.957031 L 462.410156 333.976562 L 492.039062 457.214844 L 255.042969 514.195312 Z M 225.414062 390.957031 " clip-rule="nonzero"/></clipPath><clipPath id="ffe0ffd286"><path d="M 644.726562 145.175781 L 795.476562 145.175781 L 795.476562 314.675781 L 644.726562 314.675781 Z M 644.726562 145.175781 " clip-rule="nonzero"/></clipPath><clipPath id="f72e22144e"><path d="M 1082 334 L 1197 334 L 1197 443 L 1082 443 Z M 1082 334 " clip-rule="nonzero"/></clipPath><clipPath id="45b0cca3a1"><path d="M 1201.835938 439.101562 L 1084.222656 444.710938 L 1079.21875 339.828125 L 1196.835938 334.21875 Z M 1201.835938 439.101562 " clip-rule="nonzero"/></clipPath><clipPath id="f224619501"><path d="M 1201.835938 439.101562 L 1084.222656 444.710938 L 1079.21875 339.828125 L 1196.835938 334.21875 Z M 1201.835938 439.101562 " clip-rule="nonzero"/></clipPath><clipPath id="bbc9b0d360"><path d="M 742 620 L 874 620 L 874 684 L 742 684 Z M 742 620 " clip-rule="nonzero"/></clipPath><clipPath id="7608c52b0b"><path d="M 805.773438 728.996094 L 716.59375 652.105469 L 785.15625 572.582031 L 874.335938 649.472656 Z M 805.773438 728.996094 " clip-rule="nonzero"/></clipPath><clipPath id="fcf661fc47"><path d="M 805.773438 728.996094 L 716.59375 652.105469 L 785.15625 572.582031 L 874.335938 649.472656 Z M 805.773438 728.996094 " clip-rule="nonzero"/></clipPath></defs><rect x="-144" width="1728" fill="#ffffff" y="-80.999999" height="971.999992" fill-opacity="1"/><rect x="-144" width="1728" fill="#ffffff" y="-80.999999" height="971.999992" fill-opacity="1"/><g clip-path="url(#91bcba50f3)"><g clip-path="url(#55595e153c)"><g clip-path="url(#b9f24b70d9)"><path fill="#224349" d="M 259.34375 512.605469 L 257.851562 512.191406 C 257.160156 511.929688 256.582031 511.507812 256.117188 510.933594 C 255.652344 510.355469 255.367188 509.699219 255.261719 508.96875 C 253.472656 501.542969 256.800781 454.859375 290.195312 420.707031 C 295.765625 415.382812 301.726562 410.539062 308.078125 406.179688 C 314.429688 401.820312 321.089844 398 328.0625 394.71875 C 335.035156 391.4375 342.222656 388.738281 349.632812 386.621094 C 357.039062 384.507812 364.570312 383 372.222656 382.101562 L 366.109375 356.675781 L 471.511719 375.8125 L 386.292969 440.773438 L 379.058594 410.691406 C 371.71875 411.078125 364.464844 412.078125 357.292969 413.683594 C 350.121094 415.292969 343.132812 417.484375 336.328125 420.265625 C 329.527344 423.046875 323.003906 426.375 316.757812 430.25 C 310.511719 434.125 304.636719 438.496094 299.125 443.355469 C 294.996094 447.542969 291.15625 451.980469 287.605469 456.664062 C 284.054688 461.351562 280.820312 466.246094 277.90625 471.351562 C 274.988281 476.457031 272.414062 481.726562 270.183594 487.167969 C 267.949219 492.605469 266.078125 498.167969 264.566406 503.847656 C 262.855469 509.398438 262.347656 511.074219 260.585938 511.988281 Z M 357.203125 391.523438 C 351.355469 392.839844 345.628906 394.554688 340.019531 396.664062 C 334.410156 398.773438 328.972656 401.257812 323.707031 404.117188 C 318.441406 406.976562 313.394531 410.183594 308.574219 413.738281 C 303.75 417.296875 299.191406 421.164062 294.902344 425.351562 C 290.875 429.605469 287.167969 434.125 283.785156 438.90625 C 280.398438 443.6875 277.367188 448.683594 274.691406 453.894531 C 272.015625 459.109375 269.71875 464.484375 267.804688 470.019531 C 265.894531 475.558594 264.382812 481.203125 263.269531 486.957031 C 266.621094 477.820312 270.933594 469.167969 276.210938 460.996094 C 281.488281 452.820312 287.601562 445.328125 294.550781 438.519531 C 315.636719 418.554688 344.839844 406.886719 381.332031 403.804688 L 384.175781 403.566406 L 390.375 429.355469 L 455.519531 379.675781 L 374.898438 365.019531 L 380.453125 388.132812 L 374.011719 388.597656 C 368.339844 389.171875 362.734375 390.148438 357.203125 391.523438 Z M 357.203125 391.523438 " fill-opacity="1" fill-rule="nonzero"/></g></g></g><g clip-path="url(#ffe0ffd286)"><path fill="#224349" d="M 644.515625 148.386719 C 644.515625 148.132812 644.546875 147.886719 644.609375 147.640625 C 644.691406 147.316406 644.824219 147.015625 645.007812 146.734375 C 645.191406 146.457031 645.417969 146.210938 645.679688 146.007812 C 645.945312 145.800781 646.234375 145.644531 646.550781 145.535156 C 646.867188 145.429688 647.195312 145.375 647.527344 145.375 C 739.167969 145.375 761.140625 226.277344 764.503906 241.796875 L 792.160156 241.796875 C 792.742188 241.796875 793.28125 241.953125 793.773438 242.265625 C 794.265625 242.574219 794.632812 242.992188 794.882812 243.519531 C 795.132812 244.046875 795.222656 244.597656 795.152344 245.175781 C 795.082031 245.753906 794.863281 246.265625 794.496094 246.71875 L 740.257812 313.007812 C 740.117188 313.179688 739.957031 313.335938 739.78125 313.472656 C 739.605469 313.609375 739.417969 313.726562 739.214844 313.824219 C 739.011719 313.917969 738.804688 313.992188 738.585938 314.039062 C 738.367188 314.089844 738.148438 314.113281 737.925781 314.113281 C 737.703125 314.113281 737.480469 314.089844 737.261719 314.039062 C 737.046875 313.992188 736.835938 313.917969 736.632812 313.824219 C 736.433594 313.726562 736.242188 313.609375 736.066406 313.472656 C 735.890625 313.335938 735.734375 313.179688 735.589844 313.007812 L 681.355469 246.71875 C 680.984375 246.265625 680.765625 245.753906 680.695312 245.175781 C 680.625 244.597656 680.714844 244.046875 680.964844 243.519531 C 681.214844 242.992188 681.585938 242.574219 682.078125 242.265625 C 682.566406 241.953125 683.105469 241.796875 683.6875 241.796875 L 710.746094 241.796875 C 708.582031 185.832031 646.71875 151.378906 646.082031 151.03125 C 645.597656 150.769531 645.21875 150.398438 644.9375 149.925781 C 644.65625 149.449219 644.515625 148.9375 644.515625 148.386719 Z M 785.804688 247.824219 L 762.03125 247.824219 C 761.671875 247.824219 761.324219 247.761719 760.988281 247.636719 C 760.648438 247.511719 760.34375 247.332031 760.070312 247.097656 C 759.800781 246.867188 759.574219 246.59375 759.398438 246.277344 C 759.222656 245.964844 759.109375 245.632812 759.050781 245.277344 C 758.472656 241.597656 744.371094 158.527344 658.714844 151.828125 C 677.546875 164.660156 716.832031 197.148438 716.832031 244.808594 C 716.832031 245.210938 716.753906 245.59375 716.601562 245.960938 C 716.449219 246.332031 716.230469 246.65625 715.949219 246.941406 C 715.667969 247.222656 715.339844 247.441406 714.972656 247.59375 C 714.601562 247.746094 714.21875 247.824219 713.820312 247.824219 L 690.042969 247.824219 L 737.925781 306.339844 Z M 785.804688 247.824219 " fill-opacity="1" fill-rule="nonzero"/></g><g clip-path="url(#f72e22144e)"><g clip-path="url(#45b0cca3a1)"><g clip-path="url(#f224619501)"><path fill="#224349" d="M 1194.582031 334.09375 C 1194.757812 334.082031 1194.933594 334.097656 1195.105469 334.132812 C 1195.574219 334.230469 1195.964844 334.460938 1196.277344 334.824219 C 1196.589844 335.1875 1196.757812 335.609375 1196.78125 336.089844 C 1199.824219 399.898438 1144.21875 417.886719 1133.527344 420.742188 L 1134.445312 440 C 1134.464844 440.40625 1134.371094 440.785156 1134.171875 441.136719 C 1133.972656 441.492188 1133.691406 441.761719 1133.335938 441.953125 C 1132.976562 442.144531 1132.597656 442.226562 1132.191406 442.195312 C 1131.785156 442.164062 1131.421875 442.03125 1131.09375 441.789062 L 1083.136719 406.222656 C 1082.882812 406.035156 1082.683594 405.804688 1082.535156 405.527344 C 1082.386719 405.246094 1082.304688 404.953125 1082.289062 404.636719 C 1082.273438 404.320312 1082.328125 404.019531 1082.449219 403.726562 C 1082.570312 403.4375 1082.746094 403.1875 1082.980469 402.976562 L 1127.339844 363.007812 C 1127.640625 362.738281 1127.992188 362.566406 1128.390625 362.5 C 1128.789062 362.429688 1129.179688 362.476562 1129.550781 362.632812 C 1129.925781 362.789062 1130.230469 363.03125 1130.464844 363.363281 C 1130.695312 363.695312 1130.824219 364.0625 1130.84375 364.46875 L 1131.742188 383.308594 C 1170.636719 379.945312 1192.574219 335.726562 1192.792969 335.269531 C 1192.960938 334.925781 1193.207031 334.648438 1193.527344 334.4375 C 1193.847656 334.226562 1194.199219 334.109375 1194.582031 334.09375 Z M 1130.039062 435.773438 L 1129.246094 419.21875 C 1129.234375 418.96875 1129.269531 418.726562 1129.34375 418.488281 C 1129.417969 418.25 1129.535156 418.03125 1129.6875 417.832031 C 1129.839844 417.636719 1130.023438 417.46875 1130.234375 417.335938 C 1130.449219 417.203125 1130.675781 417.113281 1130.921875 417.0625 C 1133.464844 416.535156 1190.839844 403.960938 1192.660156 344.09375 C 1184.347656 357.632812 1163.03125 386.066406 1129.84375 387.648438 C 1129.566406 387.660156 1129.296875 387.621094 1129.035156 387.527344 C 1128.773438 387.433594 1128.539062 387.292969 1128.332031 387.105469 C 1128.125 386.917969 1127.964844 386.699219 1127.84375 386.445312 C 1127.726562 386.195312 1127.660156 385.929688 1127.648438 385.652344 L 1126.859375 369.097656 L 1087.699219 404.378906 Z M 1130.039062 435.773438 " fill-opacity="1" fill-rule="nonzero"/></g></g></g><g clip-path="url(#bbc9b0d360)"><g clip-path="url(#7608c52b0b)"><g clip-path="url(#fcf661fc47)"><path fill="#224349" d="M 872.792969 647.828125 C 872.925781 647.945312 873.042969 648.074219 873.140625 648.21875 C 873.417969 648.613281 873.542969 649.046875 873.515625 649.527344 C 873.492188 650.007812 873.324219 650.429688 873.011719 650.792969 C 831.296875 699.171875 778.578125 673.945312 768.855469 668.65625 L 756.265625 683.257812 C 756 683.566406 755.675781 683.777344 755.285156 683.898438 C 754.898438 684.015625 754.507812 684.019531 754.117188 683.914062 C 753.726562 683.804688 753.394531 683.601562 753.121094 683.300781 C 752.847656 683 752.675781 682.652344 752.605469 682.25 L 742.296875 623.441406 C 742.242188 623.128906 742.257812 622.824219 742.339844 622.519531 C 742.425781 622.214844 742.570312 621.945312 742.777344 621.707031 C 742.980469 621.46875 743.226562 621.285156 743.515625 621.15625 C 743.804688 621.027344 744.105469 620.96875 744.421875 620.976562 L 804.109375 622.519531 C 804.515625 622.527344 804.886719 622.648438 805.222656 622.871094 C 805.558594 623.097656 805.808594 623.398438 805.972656 623.769531 C 806.136719 624.140625 806.191406 624.527344 806.128906 624.925781 C 806.070312 625.328125 805.910156 625.683594 805.644531 625.988281 L 793.328125 640.277344 C 823.859375 664.605469 870.207031 647.628906 870.679688 647.453125 C 871.039062 647.316406 871.410156 647.285156 871.789062 647.351562 C 872.164062 647.417969 872.5 647.578125 872.792969 647.828125 Z M 755.980469 677.160156 L 766.800781 664.609375 C 766.964844 664.417969 767.15625 664.261719 767.375 664.140625 C 767.59375 664.019531 767.828125 663.941406 768.074219 663.902344 C 768.320312 663.867188 768.566406 663.871094 768.8125 663.921875 C 769.058594 663.972656 769.289062 664.0625 769.5 664.195312 C 771.707031 665.5625 821.984375 695.933594 864.511719 653.757812 C 849.164062 657.859375 814.128906 663.8125 788.964844 642.117188 C 788.753906 641.933594 788.585938 641.71875 788.460938 641.472656 C 788.335938 641.222656 788.261719 640.960938 788.242188 640.679688 C 788.222656 640.402344 788.253906 640.132812 788.34375 639.867188 C 788.429688 639.605469 788.566406 639.367188 788.746094 639.15625 L 799.570312 626.601562 L 746.878906 625.242188 Z M 755.980469 677.160156 " fill-opacity="1" fill-rule="nonzero"/></g></g></g></svg>